<?xml version="1.0" encoding="UTF-8"?>
<svg version="1.1" xmlns="http://www.w3.org/2000/svg" width="128" height="128">
<path d="M0 0 C0.8765625 0.00563965 1.753125 0.0112793 2.65625 0.01708984 C17.19380276 0.28819266 30.52376634 4.93880409 41.16015625 15.1328125 C52.3105386 27.12108486 56.58080185 41.5093212 56.39453125 57.6640625 C55.62496944 71.22577434 49.67248835 84.59617047 40.1875 94.3125 C40.68121094 94.98796875 41.17492187 95.6634375 41.68359375 96.359375 C42.32425781 97.25140625 42.96492188 98.1434375 43.625 99.0625 C44.26308594 99.94421875 44.90117188 100.8259375 45.55859375 101.734375 C47.0150081 104.03949125 47.74681821 105.65599572 48.1875 108.3125 C44.20886968 110.12883123 40.22386872 111.71067812 36.0625 113.0625 C35.25554687 113.32546875 34.44859375 113.5884375 33.6171875 113.859375 C30.7459083 114.39485472 28.95409988 114.24685416 26.1875 113.3125 C24.60546875 111.68359375 24.60546875 111.68359375 23.375 109.75 C22.95605469 109.10933594 22.53710938 108.46867187 22.10546875 107.80859375 C21.65107422 107.06802734 21.65107422 107.06802734 21.1875 106.3125 C20.54167969 106.456875 19.89585938 106.60125 19.23046875 106.75 C0.74302934 110.39184853 -17.49327633 109.40436092 -33.8125 99.3125 C-45.76384604 90.54134046 -52.57539995 78.79828212 -55.39453125 64.32421875 C-57.65291076 48.05122248 -53.82143265 32.4108735 -44.22265625 19.109375 C-33.21811532 5.54142336 -17.03000995 -0.11551363 0 0 Z M-20.8125 34.3125 C-27.14724926 41.2048311 -28.33098243 48.58461726 -28.1953125 57.76171875 C-27.4853196 64.34726518 -24.62173164 68.98634503 -20.625 74.125 C-12.58927401 80.37500911 -5.95284593 82.09654737 4.1875 81.3125 C3.69378906 80.56484375 3.20007813 79.8171875 2.69140625 79.046875 C2.05074219 78.06203125 1.41007812 77.0771875 0.75 76.0625 C0.11191406 75.08796875 -0.52617188 74.1134375 -1.18359375 73.109375 C-2.5701136 70.72868385 -3.359081 68.99469693 -3.8125 66.3125 C10.94995962 60.61470857 10.94995962 60.61470857 16.1875 61.3125 C17.91796875 63.28125 17.91796875 63.28125 19.375 65.8125 C20.26804056 67.33938729 21.19626744 68.84745247 22.1875 70.3125 C22.8475 70.3125 23.5075 70.3125 24.1875 70.3125 C28.57296438 62.91202887 29.27618101 55.7907238 28.1875 47.3125 C25.57051366 38.43645416 19.71857811 32.78399715 11.75 28.4375 C0.03433394 24.73781598 -11.38186189 26.02036951 -20.8125 34.3125 Z " fill="#8A47A4" transform="translate(63.8125,13.6875)"/>
</svg>
